# xmcd
#
# Track frame offsets:
# 150
# 19940
# 36220
# 54353
# 79021
# 93707
# 110969
# 128883
# 149317
# 167756
# 181480
# 200864
# 214714
# 234539
# 247421
#
# Disc length: 3513 seconds
#
# Revision: 0
# Processed by: cddbd v1.5.2PL0 Copyright (c) Steve Scherf et al.
# Submitted via: Audion 3.0.2 (http://www.panic.com/audion/)
#
DISCID=e50db70f
DTITLE=foo - tyler
DYEAR=1900
DGENRE=
TTITLE0=when I'm gone
TTITLE1=pump it
TTITLE2=don't phunk with my heart
TTITLE3=my humps
TTITLE4=gone going
TTITLE5=disco club
TTITLE6=ba bump
TTITLE7=i'd die for you
TTITLE8=hurt
TTITLE9=killer queen
TTITLE10=fat bottomed girls
TTITLE11=bicycle race
TTITLE12=i can see for miles
TTITLE13=1921
TTITLE14=the acid queen
EXTD=
EXTT0=
EXTT1=
EXTT2=
EXTT3=
EXTT4=
EXTT5=
EXTT6=
EXTT7=
EXTT8=
EXTT9=
EXTT10=
EXTT11=
EXTT12=
EXTT13=
EXTT14=
PLAYORDER=
